<?xml version="1.0" encoding="UTF-8"?>
<svg version="1.1" xmlns="http://www.w3.org/2000/svg" width="500" height="500">
<path d="M0 0 C1.03769531 -0.02578125 2.07539063 -0.0515625 3.14453125 -0.078125 C8.96484168 0.54948229 12.33820231 4.0799275 16.1875 8.25 C17.42939432 10.73378864 17.49744662 12.59974773 17.625 15.375 C17.68558594 16.28507812 17.74617187 17.19515625 17.80859375 18.1328125 C17.1224477 21.57648889 16.53691688 22.01649218 14.20298767 24.42449951 C9.45947167 30.61744535 10.30044005 38.14105788 10.31860352 45.57519531 C10.30122472 47.18468627 10.28135858 48.79415209 10.25914097 50.40358353 C10.20933186 54.55055593 10.19504947 58.69680069 10.19181299 62.84404182 C10.18642475 65.84981744 10.16331755 68.8552876 10.13875085 71.86095738 C10.06888864 80.49948215 10.06935914 89.13731308 10.08610606 97.77604198 C10.09254435 101.68762703 10.09295898 105.5992137 10.09413147 109.51080322 C10.09718654 116.85134181 10.1053175 124.19186473 10.11548096 131.53239655 C10.12682797 139.91759203 10.13219837 148.30278842 10.13717639 156.68798971 C10.14750819 173.87533566 10.16520098 191.06266554 10.1875 208.25 C13.8175 206.27 17.4475 204.29 21.1875 202.25 C21.18892502 200.23155472 21.19035004 198.21310944 21.19181824 196.13349915 C21.20760064 177.13640192 21.25088335 158.13951015 21.31959057 139.14252949 C21.35425272 129.37534904 21.3795977 119.6083099 21.38305664 109.84106445 C21.38609483 101.32852044 21.40656573 92.81622802 21.44802457 84.30378121 C21.46936951 79.7958818 21.48194757 75.2883402 21.47365379 70.78038979 C21.46612301 66.53749775 21.48189617 62.29533128 21.51556015 58.05257225 C21.52380526 56.49535129 21.52352936 54.93805834 21.51409721 53.38084412 C21.50248733 51.25351306 21.52156854 49.12856484 21.54826355 47.00141907 C21.55102893 45.81138433 21.55379431 44.62134958 21.55664349 43.39525318 C22.37082552 39.33599631 24.04516994 37.85199126 27.1875 35.25 C30.04074437 33.82337781 32.02204549 33.93966132 35.1875 34.25 C39.6800167 36.90466896 40.88090705 39.3047172 42.1875 44.25 C42.43359566 47.70570946 42.43359566 47.70570946 42.42800903 51.57723999 C42.42971788 52.29290465 42.43142673 53.00856931 42.43318737 53.74592078 C42.43646849 56.13198687 42.4255015 58.51776862 42.41455078 60.90380859 C42.41398637 62.61895745 42.41430381 64.33410679 42.41543579 66.04925537 C42.41600913 70.69755463 42.40425779 75.34575046 42.39028788 79.99402571 C42.37777746 84.85470523 42.37660977 89.71538718 42.37423706 94.57608032 C42.36802322 103.77697165 42.35161366 112.9778154 42.33153808 122.17868578 C42.30917613 132.65503973 42.2981849 143.13139595 42.28814721 153.60776782 C42.26724737 175.15520509 42.23207322 196.70259955 42.1875 218.25 C45.8175 220.23 49.4475 222.21 53.1875 224.25 C53.30351952 212.65373097 53.39227937 201.05760078 53.44656086 189.46086884 C53.47261774 184.07559154 53.50794473 178.6907123 53.56469727 173.30566406 C53.61915591 168.10553594 53.64894993 162.90578991 53.66188622 157.70539856 C53.6711012 155.72469572 53.68909614 153.74401301 53.71615028 151.76347351 C53.75262487 148.98183549 53.75743769 146.20176183 53.75512695 143.41992188 C53.77310333 142.60711761 53.79107971 141.79431335 53.80960083 140.95687866 C53.76158773 135.59017527 52.502015 132.37104494 49.3528471 128.01941681 C46.70759599 124.00297245 46.92624954 119.72200479 47.8125 115.1875 C49.05367504 110.98220299 50.91621843 108.23682231 54.1875 105.25 C59.50683845 102.77827314 64.57406446 102.98245004 70.1875 104.25 C74.79876818 106.8601518 78.4885432 109.15312961 80.1875 114.25 C80.49609375 116.66796875 80.49609375 116.66796875 80.625 119.4375 C80.68558594 120.33855469 80.74617187 121.23960938 80.80859375 122.16796875 C80.11642827 125.6026767 79.54908324 125.95809514 77.19203186 128.32156372 C72.20394917 134.86318421 73.39956324 143.35814071 73.49389648 151.18701172 C73.49391196 153.01790553 73.49121567 154.84880106 73.48602295 156.6796875 C73.48040023 160.61616526 73.49337927 164.55198374 73.52075005 168.48836899 C73.56355443 174.73839633 73.56144261 180.98792875 73.55299377 187.23806763 C73.54248821 199.40704997 73.57511096 211.57571985 73.61428833 223.74462891 C73.66315972 239.1673803 73.69908836 254.58996511 73.68295342 270.01280034 C73.67883647 275.19483182 73.68540165 280.37637445 73.71795464 285.55831528 C74.00344751 331.55382613 67.24552916 372.1759628 38.1875 409.25 C37.50171875 410.14203125 36.8159375 411.0340625 36.109375 411.953125 C26.8433023 423.69015042 16.06665842 434.18010202 4.1875 443.25 C3.63513672 443.67877441 3.08277344 444.10754883 2.51367188 444.54931641 C-24.92470915 465.77566002 -60.96542848 482.16847412 -96.02734375 482.87890625 C-98.8125 482.25 -98.8125 482.25 -101.19140625 479.83984375 C-102.8125 477.25 -102.8125 477.25 -102.8125 475.25 C-103.72 475.1675 -104.6275 475.085 -105.5625 475 C-109.35767398 474.12419062 -110.19354623 473.02767824 -112.8125 470.25 C-114.606875 469.5075 -114.606875 469.5075 -116.4375 468.75 C-119.21595826 467.27729788 -119.73503426 466.48467562 -120.7421875 463.43359375 C-122.16819346 455.31708038 -122.16819346 455.31708038 -120.8125 451.25 C-120.1525 451.25 -119.4925 451.25 -118.8125 451.25 C-119.29783203 450.45722656 -119.29783203 450.45722656 -119.79296875 449.6484375 C-122.24599404 443.87771899 -121.5639557 436.42922153 -119.5625 430.625 C-117.82690832 428.26955414 -116.17072443 426.93583813 -113.8125 425.25 C-113.956875 424.6415625 -114.10125 424.033125 -114.25 423.40625 C-116.83396259 411.20420442 -118.29337502 393.80534662 -112.8125 382.25 C-110.20858549 380.48605791 -109.00469704 380.25 -105.8125 380.25 C-105.97105469 379.67765625 -106.12960937 379.1053125 -106.29296875 378.515625 C-107.71462391 372.31592582 -107.37968501 366.55868772 -104.1953125 360.98046875 C-101.03827164 357.02970858 -97.11402598 355.51595411 -92.17578125 354.9453125 C-85.53142556 354.77071629 -85.53142556 354.77071629 -81.8125 357.25 C-72.90377951 356.68264246 -65.73937945 349.82434679 -59.8203125 343.59375 C-48.11339572 329.92808839 -42.6482332 316.07416515 -42.68119812 297.98849487 C-42.67908241 296.95713539 -42.67696669 295.92577591 -42.67478687 294.86316311 C-42.66879714 291.40860196 -42.66978627 287.95407744 -42.6706543 284.49951172 C-42.66762224 282.0223891 -42.66410066 279.54526704 -42.66012573 277.06814575 C-42.6522419 271.73493214 -42.64707362 266.40172581 -42.64383507 261.06850815 C-42.63833118 252.6404698 -42.62142774 244.21247174 -42.60249329 235.78445435 C-42.59613727 232.89980132 -42.58982878 230.01514819 -42.58351612 227.13049507 C-42.58193236 226.40968693 -42.5803486 225.6888788 -42.57871684 224.94622799 C-42.56079312 216.74784628 -42.54455882 208.54946175 -42.52954102 200.35107422 C-42.52747721 199.22728521 -42.52747721 199.22728521 -42.52537171 198.0807934 C-42.50341848 185.92680934 -42.49267898 173.7728357 -42.48517027 161.61883532 C-42.47710463 149.13872227 -42.45383577 136.65869866 -42.4172166 124.17863667 C-42.39517637 116.48087112 -42.38553152 108.78328934 -42.39171693 101.08549382 C-42.39526104 95.19219874 -42.37805944 89.29908111 -42.35303879 83.4058342 C-42.34609665 80.98545816 -42.34603264 78.56505148 -42.35323906 76.14467621 C-42.36206414 72.84860401 -42.34653617 69.5535287 -42.32475281 66.25753784 C-42.33741661 64.81037551 -42.33741661 64.81037551 -42.35033625 63.33397758 C-42.27091841 56.86610037 -42.27091841 56.86610037 -39.9054842 53.68702888 C-36.05228606 51.04144894 -33.51372864 50.85159079 -28.8125 51.25 C-24.25021786 54.0270413 -24.25021786 54.0270413 -23.18957615 56.99041367 C-22.70370618 59.90193468 -22.67089763 62.70047846 -22.65428162 65.65338135 C-22.6444928 66.97148804 -22.63470398 68.28959473 -22.62461853 69.64764404 C-22.61871467 71.10656702 -22.6129042 72.56549038 -22.60717773 74.02441406 C-22.59759671 75.561933 -22.58758649 77.09944932 -22.57717896 78.63696289 C-22.55014815 82.81012987 -22.5291287 86.98330814 -22.50917697 91.15651417 C-22.48730617 95.51808033 -22.45992283 99.87961176 -22.43312073 104.2411499 C-22.38320864 112.50000126 -22.3382643 120.75887192 -22.29509836 129.01776099 C-22.24571331 138.42035798 -22.19079988 147.82292013 -22.13541877 157.22548342 C-22.02162151 176.56695659 -21.91477754 195.90846265 -21.8125 215.25 C-20.57073305 215.95226141 -19.31864401 216.63629109 -18.0625 217.3125 C-17.36640625 217.69535156 -16.6703125 218.07820312 -15.953125 218.47265625 C-13.45109372 219.3812406 -12.2792645 219.13336837 -9.8125 218.25 C-9.67219241 194.05829363 -9.56646148 169.86664845 -9.50162697 145.67461681 C-9.47071984 134.44122382 -9.42859926 123.20808399 -9.35986328 111.97485352 C-9.29996522 102.18127926 -9.26132802 92.3878884 -9.24796903 82.59413606 C-9.24016292 77.41074908 -9.22188226 72.22788666 -9.17811966 67.0446682 C-9.13721424 62.16000273 -9.12486708 57.27607492 -9.13385391 52.39125443 C-9.13221127 50.60428284 -9.12038338 48.81728508 -9.09726715 47.03046227 C-8.9820604 37.66102288 -9.02848873 30.47633272 -14.46901512 22.42389393 C-16.71039343 18.79711794 -16.43919344 16.42795624 -15.8125 12.25 C-14.16354977 7.04278876 -12.36016546 4.28177697 -7.8125 1.25 C-5.13594199 -0.08827901 -2.98815948 0.04421444 0 0 Z M10.1875 269.25 C10.1875 271.23 10.1875 273.21 10.1875 275.25 C11.76023568 272.4075146 11.76023568 272.4075146 12.1875 269.25 C11.5275 269.25 10.8675 269.25 10.1875 269.25 Z M19.1875 270.25 C19.8475 270.91 20.5075 271.57 21.1875 272.25 C21.1875 271.59 21.1875 270.93 21.1875 270.25 C20.5275 270.25 19.8675 270.25 19.1875 270.25 Z " fill="#F9FAFB" transform="translate(372.8125,1.75)"/>
<path d="M0 0 C0.87537415 0.00359528 1.75074829 0.00719055 2.65264893 0.01089478 C4.02812141 0.01067574 4.02812141 0.01067574 5.43138123 0.01045227 C8.47773564 0.01115177 11.52402973 0.01894589 14.57037354 0.02676392 C16.67644721 0.02862796 18.78252132 0.03005193 20.88859558 0.03105164 C26.44364612 0.03487786 31.99867069 0.04470903 37.55371094 0.05575562 C43.21746469 0.0659675 48.88122262 0.07054878 54.54498291 0.07559204 C65.66673914 0.0863312 76.78847606 0.10340887 87.91021729 0.12442017 C88.84948951 5.65796051 89.04250218 10.97740413 89.01028442 16.58349609 C89.00902215 17.51669949 89.00775988 18.44990289 89.00645936 19.41138518 C89.00109567 22.5284883 88.98857275 25.64552146 88.97613525 28.76260376 C88.97093989 31.00203345 88.9662322 33.24146432 88.9619751 35.480896 C88.95204218 40.30060263 88.93919494 45.12028971 88.92425156 49.93998337 C88.90114709 57.57352704 88.8878712 65.20706809 88.8765564 72.84063721 C88.86007138 83.55551626 88.84223478 94.27038962 88.82086182 104.98526001 C88.81950938 105.66468362 88.81815695 106.34410723 88.81676354 107.04411943 C88.79462644 118.0317698 88.76475551 129.0193892 88.73289441 140.00701503 C88.70038691 151.31534643 88.67978994 162.62365236 88.66862214 173.93202841 C88.66187609 180.27004331 88.64951973 186.60793598 88.62359238 192.94590378 C88.59916988 198.91640305 88.58894902 204.88676363 88.58918762 210.85731125 C88.58678436 213.03681651 88.57929249 215.21632369 88.56605911 217.3957901 C88.394778 246.85795648 94.21721525 271.82476747 115.16802979 293.37832642 C116.07295166 294.28453735 116.97787354 295.19074829 117.91021729 296.12442017 C118.71201416 296.9378186 119.51381104 297.75121704 120.33990479 298.58926392 C126.80366799 304.7881188 134.02493348 309.03376099 141.91021729 313.12442017 C142.82674072 313.60910767 143.74326416 314.09379517 144.68756104 314.59317017 C152.41012049 318.40219197 160.55520714 320.24794988 168.91021729 322.12442017 C170.71071658 327.52357471 171.19371406 332.20394567 171.15313721 337.87368774 C171.15503555 338.72005798 171.1569339 339.56642822 171.15888977 340.43844604 C171.1625726 343.2153776 171.15193244 345.99204342 171.14068604 348.76895142 C171.13949314 350.70471669 171.13904131 352.64048255 171.13929749 354.57624817 C171.13773715 358.62188367 171.12947899 362.6674301 171.11602783 366.71304321 C171.09898176 371.90627576 171.09521536 377.09941109 171.09597301 382.29266834 C171.09570164 386.2842553 171.09022659 390.27582088 171.08297157 394.26740074 C171.07978434 396.18322272 171.07781737 398.09904711 171.07707787 400.0148716 C171.07491811 402.68399854 171.06618343 405.35302069 171.05548096 408.02212524 C171.05593414 408.81745163 171.05638733 409.61277802 171.05685425 410.4322052 C171.02470052 415.89545369 171.02470052 415.89545369 169.91021729 418.12442017 C143.30488826 417.30705215 117.13300959 410.16322898 93.91021729 397.12442017 C93.22943115 396.75091431 92.54864502 396.37740845 91.847229 395.99258423 C76.12291807 387.3277999 62.2369963 377.19452254 49.91021729 364.12442017 C47.54464399 361.72583887 45.16979092 359.36342899 42.69146729 357.08145142 C11.92381162 328.15774771 -5.88025584 282.14209318 -7.36057281 240.31589508 C-7.49774119 233.96585208 -7.47346249 227.61709429 -7.44622803 221.26602173 C-7.44702101 218.85078355 -7.44912472 216.43554551 -7.4524231 214.02030945 C-7.45698128 208.20144282 -7.44787227 202.3827209 -7.43213513 196.56387636 C-7.41443641 189.77893763 -7.4131727 182.99402348 -7.41251954 176.20906529 C-7.41084058 164.1126249 -7.39512689 152.01624512 -7.37103271 139.91983032 C-7.34768007 128.1870778 -7.3335925 116.45436371 -7.33001709 104.72158813 C-7.32979432 103.99585681 -7.32957156 103.27012549 -7.32934204 102.52240232 C-7.32889943 101.06033231 -7.32845741 99.59826231 -7.32801597 98.13619231 C-7.3277964 97.41494548 -7.32757684 96.69369865 -7.32735062 95.95059586 C-7.32713463 95.23113844 -7.32691864 94.51168103 -7.32669611 93.77042188 C-7.32300208 82.56468894 -7.31165162 71.35896217 -7.29922022 60.15323599 C-7.29478405 56.09519929 -7.29134633 52.03716317 -7.28859809 47.97912499 C-7.28376454 40.95997376 -7.27368315 33.94085539 -7.25777054 26.9217205 C-7.25323283 24.58714249 -7.25040542 22.25256048 -7.24936295 19.91797829 C-7.24762829 16.74679209 -7.23977541 13.57568134 -7.23022461 10.4045105 C-7.23152433 9.00044303 -7.23152433 9.00044303 -7.23285031 7.56801057 C-7.19840188 0.01248936 -7.19840188 0.01248936 0 0 Z " fill="#1B2750" transform="translate(77.08978271484375,56.875579833984375)"/>
<path d="M0 0 C4.4925167 2.65466896 5.69340705 5.0547172 7 10 C7.24609566 13.45570946 7.24609566 13.45570946 7.24050903 17.32723999 C7.24221788 18.04290465 7.24392673 18.75856931 7.24568737 19.49592078 C7.24896849 21.88198687 7.2380015 24.26776862 7.22705078 26.65380859 C7.22648637 28.36895745 7.22680381 30.08410679 7.22793579 31.79925537 C7.22850913 36.44755463 7.21675779 41.09575046 7.20278788 45.74402571 C7.19027746 50.60470523 7.18910977 55.46538718 7.18673706 60.32608032 C7.18052322 69.52697165 7.16411366 78.7278154 7.14403808 87.92868578 C7.12167613 98.40503973 7.1106849 108.88139595 7.10064721 119.35776782 C7.07974737 140.90520509 7.04457322 162.45259955 7 184 C10.63 185.98 14.26 187.96 18 190 C18.11601952 178.40373097 18.20477937 166.80760078 18.25906086 155.21086884 C18.28511774 149.82559154 18.32044473 144.4407123 18.37719727 139.05566406 C18.43165591 133.85553594 18.46144993 128.65578991 18.47438622 123.45539856 C18.4836012 121.47469572 18.50159614 119.49401301 18.52865028 117.51347351 C18.56512487 114.73183549 18.56993769 111.95176183 18.56762695 109.16992188 C18.58560333 108.35711761 18.60357971 107.54431335 18.62210083 106.70687866 C18.57408773 101.34017527 17.314515 98.12104494 14.1653471 93.76941681 C11.52009599 89.75297245 11.73874954 85.47200479 12.625 80.9375 C13.86617504 76.73220299 15.72871843 73.98682231 19 71 C24.31933845 68.52827314 29.38656446 68.73245004 35 70 C39.61126818 72.6101518 43.3010432 74.90312961 45 80 C45.30859375 82.41796875 45.30859375 82.41796875 45.4375 85.1875 C45.49808594 86.08855469 45.55867187 86.98960938 45.62109375 87.91796875 C44.92892827 91.3526767 44.36158324 91.70809514 42.00453186 94.07156372 C37.01644917 100.61318421 38.21206324 109.10814071 38.30639648 116.93701172 C38.30641196 118.76790553 38.30371567 120.59880106 38.29852295 122.4296875 C38.29290023 126.36616526 38.30587927 130.30198374 38.33325005 134.23836899 C38.37605443 140.48839633 38.37394261 146.73792875 38.36549377 152.98806763 C38.35498821 165.15704997 38.38761096 177.32571985 38.42678833 189.49462891 C38.47565972 204.9173803 38.51158836 220.33996511 38.49545342 235.76280034 C38.49133647 240.94483182 38.49790165 246.12637445 38.53045464 251.30831528 C38.81594751 297.30382613 32.05802916 337.9259628 3 375 C2.31421875 375.89203125 1.6284375 376.7840625 0.921875 377.703125 C-8.3441977 389.44015042 -19.12084158 399.93010202 -31 409 C-31.55236328 409.42877441 -32.10472656 409.85754883 -32.67382812 410.29931641 C-60.11220915 431.52566002 -96.15292848 447.91847412 -131.21484375 448.62890625 C-134 448 -134 448 -136.37890625 445.58984375 C-138 443 -138 443 -138 441 C-138.9075 440.9175 -139.815 440.835 -140.75 440.75 C-144.54517398 439.87419062 -145.38104623 438.77767824 -148 436 C-149.794375 435.2575 -149.794375 435.2575 -151.625 434.5 C-154.40345826 433.02729788 -154.92253426 432.23467562 -155.9296875 429.18359375 C-157.35569346 421.06708038 -157.35569346 421.06708038 -156 417 C-155.34 417 -154.68 417 -154 417 C-154.32742187 416.47921875 -154.65484375 415.9584375 -154.9921875 415.421875 C-156.31089836 412.25287991 -156.19340276 409.6701381 -156.125 406.25 C-156.09792969 404.49429688 -156.09792969 404.49429688 -156.0703125 402.703125 C-156.04710937 401.81109375 -156.02390625 400.9190625 -156 400 C-155.34 400 -154.68 400 -154 400 C-153.6596875 399.1646875 -153.6596875 399.1646875 -153.3125 398.3125 C-151.35217383 394.85859198 -148.87214988 391.8392396 -145.1875 390.1875 C-144.465625 390.125625 -143.74375 390.06375 -143 390 C-141.741875 389.87625 -140.48375 389.7525 -139.1875 389.625 C-135.01167534 389.64046602 -132.92713304 391.10709638 -129.93359375 393.90625 C-124.48999 396.9854602 -117.40144505 394.3525683 -111.75 392.8125 C-110.48820923 392.47303345 -110.48820923 392.47303345 -109.20092773 392.12670898 C-102.79196569 390.34331878 -96.91890487 388.0466301 -91 385 C-89.61361328 384.35804688 -89.61361328 384.35804688 -88.19921875 383.703125 C-61.44230673 371.08662079 -39.09719611 350.57857663 -26 324 C-25.42378906 322.84371094 -24.84757813 321.68742187 -24.25390625 320.49609375 C-20.63703549 312.92752888 -18.08135984 305.34615348 -16.125 297.1875 C-15.92189209 296.34074707 -15.71878418 295.49399414 -15.50952148 294.62158203 C-13.27405902 284.65244478 -12.85105329 274.6920693 -12.86869812 264.5052948 C-12.86658241 263.40165394 -12.86446669 262.29801307 -12.86228687 261.16092855 C-12.85633256 257.49163422 -12.85728371 253.82237472 -12.8581543 250.15307617 C-12.85511994 247.51097428 -12.85167159 244.86887632 -12.84762573 242.22677612 C-12.83954706 236.55207006 -12.83458104 230.87736844 -12.83133507 225.2026577 C-12.82581673 216.2317912 -12.80889974 207.26096224 -12.78999329 198.29011536 C-12.78363825 195.21618563 -12.77732966 192.14225581 -12.77101612 189.068326 C-12.76943236 188.30035904 -12.7678486 187.53239209 -12.76621684 186.74115342 C-12.74831368 178.01762383 -12.73206834 169.29409164 -12.71704102 160.57055664 C-12.71566514 159.77387565 -12.71428927 158.97719465 -12.71287171 158.15637181 C-12.69090639 145.2248402 -12.68017498 132.2933184 -12.67267027 119.36177143 C-12.66460118 106.07014442 -12.64132412 92.77860132 -12.6047166 79.48702222 C-12.58269961 71.29527895 -12.57302441 63.10370817 -12.57921693 54.9119368 C-12.58238989 49.30345653 -12.5710724 43.69512385 -12.54832252 38.08668926 C-12.5356506 34.85139419 -12.5316656 31.61649514 -12.54073906 28.3811779 C-12.54958396 24.87371176 -12.53400334 21.36717727 -12.51225281 17.85978699 C-12.52491661 16.3272599 -12.52491661 16.3272599 -12.53783625 14.76377267 C-12.47022215 8.88191627 -11.9310103 5.4771471 -8 1 C-5.14675563 -0.42662219 -3.16545451 -0.31033868 0 0 Z " fill="#1176BD" transform="translate(408,36)"/>
<path d="M0 0 C2.92243865 2.51934367 3.81254436 4.53120202 4.30859375 8.41796875 C4.37240234 9.78888672 4.37240234 9.78888672 4.4375 11.1875 C4.49808594 12.08855469 4.55867187 12.98960938 4.62109375 13.91796875 C3.92892827 17.3526767 3.36158324 17.70809514 1.00453186 20.07156372 C-3.98355083 26.61318421 -2.78793676 35.10814071 -2.69360352 42.93701172 C-2.69358804 44.76790553 -2.69628433 46.59880106 -2.70147705 48.4296875 C-2.70709977 52.36616526 -2.69412073 56.30198374 -2.66674995 60.23836899 C-2.62394557 66.48839633 -2.62605739 72.73792875 -2.63450623 78.98806763 C-2.64501179 91.15704997 -2.61238904 103.32571985 -2.57321167 115.49462891 C-2.52434028 130.9173803 -2.48841164 146.33996511 -2.50454658 161.76280034 C-2.50866353 166.94483182 -2.50209835 172.12637445 -2.46954536 177.30831528 C-2.18405249 223.30382613 -8.94197084 263.9259628 -38 301 C-38.68578125 301.89203125 -39.3715625 302.7840625 -40.078125 303.703125 C-49.3441977 315.44015042 -60.12084158 325.93010202 -72 335 C-72.55236328 335.42877441 -73.10472656 335.85754883 -73.67382812 336.29931641 C-92.2911953 350.70171982 -114.68017266 363.55759385 -138.1953125 367.50390625 C-142.26414081 368.22360151 -146.28233923 369.15353769 -150.3125 370.0625 C-167.57582404 373.94250136 -167.57582404 373.94250136 -174 373 C-177.38318343 370.34178445 -177.88402829 368.72160177 -178.5625 364.5 C-177.82085963 359.88534881 -176.71205035 358.83889565 -173 356 C-169.29307426 354.84323427 -165.51828905 354.28888892 -161.6875 353.6875 C-122.6358731 346.67428623 -84.39125585 327.17858521 -59 296 C-58.59668457 295.5143457 -58.19336914 295.02869141 -57.77783203 294.52832031 C-31.99629139 263.38700743 -21.9069664 228.28960421 -21.80712891 188.22119141 C-21.79921462 186.43312425 -21.79094488 184.64505864 -21.78234863 182.85699463 C-21.75631697 177.02186572 -21.74085607 171.18673023 -21.7265625 165.3515625 C-21.72119807 163.33766044 -21.71582056 161.32375841 -21.71043015 159.30985641 C-21.68884352 150.93870221 -21.67010262 142.56754981 -21.65880775 134.19637489 C-21.64252846 122.21372915 -21.60920646 110.23140538 -21.55240691 98.24888098 C-21.51376946 89.81047005 -21.49418338 81.37214556 -21.48888719 72.93364847 C-21.48522989 67.89659391 -21.47316507 62.85988431 -21.44078445 57.82292557 C-21.41080706 53.09330987 -21.40435478 48.36424995 -21.41616821 43.63455963 C-21.41638971 41.8978735 -21.40802233 40.16116225 -21.39051437 38.42456436 C-21.36793687 36.05675045 -21.37606159 33.69097269 -21.39199829 31.32315063 C-21.3781162 30.63347061 -21.36423412 29.94379058 -21.34993136 29.23321116 C-21.33228662 27.06172657 -21.33228662 27.06172657 -22 24 C-24.37123006 21.63928625 -24.37123006 21.63928625 -27 20 C-29.32696014 15.14532237 -29.42965919 9.93873745 -27.81640625 4.85546875 C-26.12413965 1.0094083 -24.0707049 -2.0378095 -20.17578125 -3.84765625 C-12.61377314 -6.09100247 -6.25364621 -4.94474351 0 0 Z " fill="#242F57" transform="translate(449,110)"/>
<path d="M0 0 C1.03769531 -0.02578125 2.07539063 -0.0515625 3.14453125 -0.078125 C8.96484168 0.54948229 12.33820231 4.0799275 16.1875 8.25 C17.42939432 10.73378864 17.49744662 12.59974773 17.625 15.375 C17.68558594 16.28507812 17.74617188 17.19515625 17.80859375 18.1328125 C17.1252587 21.56238087 16.50950886 22.07618828 14.20254517 24.50648499 C9.66419116 30.4596665 10.30552159 37.08265605 10.32568359 44.26342773 C10.30836827 45.83827402 10.28860726 47.41309491 10.26666832 48.98788357 C10.21353201 53.43590852 10.20040638 57.88332427 10.19441128 62.33163214 C10.18482273 66.38050857 10.15485382 70.42916042 10.12595356 74.47793788 C10.03512436 87.41624094 10.00586403 100.35437706 9.98826981 113.2929554 C9.97738063 121.20243936 9.95711629 129.11188804 9.93515015 137.02134705 C9.92767961 139.75233925 9.92026485 142.48333161 9.91286278 145.214324 C9.91101221 145.89586761 9.90916165 146.57741122 9.907255 147.27960767 C9.88651937 154.95829275 9.86759134 162.63698183 9.84960938 170.31567383 C9.84797119 171.01406065 9.84633301 171.71244747 9.84464519 172.43199753 C9.81824824 183.79795265 9.79964722 195.16391093 9.78301747 206.52988393 C9.76553163 218.29345201 9.73664305 230.05695753 9.6981281 241.82047552 C9.67699778 248.38834853 9.66161936 254.95615447 9.65932083 261.52406502 C9.65716014 267.68624649 9.64114719 273.84824182 9.61493111 280.01036644 C9.60779866 282.25514827 9.6056073 284.4999528 9.60903358 286.74474335 C9.63054358 303.52929904 9.048064 320.47562583 3.0625 336.375 C2.7624707 337.19500488 2.46244141 338.01500977 2.15332031 338.85986328 C-8.95010718 368.19170055 -28.99895132 389.99115543 -56.8125 404.25 C-57.4621875 404.60578125 -58.111875 404.9615625 -58.78125 405.328125 C-69.35368923 410.97273239 -82.72561556 416.25 -94.8125 416.25 C-98.6466267 414.97195777 -99.88563702 413.79542789 -101.8125 410.25 C-102.49473329 406.00499289 -102.33840153 404.0660541 -100 400.4375 C-96.86574788 398.28654266 -95.82690503 397.93241768 -92.25 397.4375 C-74.11917288 394.8158804 -55.31617422 384.28388655 -41.8125 372.25 C-41.05453125 371.57453125 -40.2965625 370.8990625 -39.515625 370.203125 C-23.18429828 354.77283699 -11.18736054 331.03107361 -9.62168407 308.50459874 C-9.54509347 305.49877926 -9.52666702 302.49838852 -9.53161621 299.49159241 C-9.52567397 298.34741472 -9.51973172 297.20323704 -9.51360941 296.0243873 C-9.49634264 292.21162193 -9.49322813 288.39898293 -9.49023438 284.58618164 C-9.48203806 281.84396129 -9.47096059 279.10175394 -9.46014404 276.35954285 C-9.43308924 268.92575565 -9.42094712 261.49199018 -9.41212273 254.05816197 C-9.40658207 249.41163319 -9.39810485 244.76511262 -9.38911438 240.1185894 C-9.36474969 227.23780498 -9.34414309 214.35702709 -9.3373642 201.47622013 C-9.33692506 200.65340737 -9.33648593 199.83059461 -9.33603349 198.98284813 C-9.33559694 198.15815375 -9.33516038 197.33345937 -9.3347106 196.48377424 C-9.33382369 194.81283192 -9.33293056 193.14188959 -9.33203125 191.47094727 C-9.33136696 190.22769971 -9.33136696 190.22769971 -9.33068925 188.95933603 C-9.3227897 175.52339437 -9.28786165 162.08766937 -9.24131221 148.65181143 C-9.19383824 134.83703152 -9.16895858 121.02236031 -9.16662836 107.20749754 C-9.1647981 99.4589568 -9.15337494 91.71069898 -9.11698914 83.9622364 C-9.08612422 77.36666749 -9.07598318 70.77146908 -9.09246534 64.17584164 C-9.10025552 60.81404466 -9.0952435 57.45359694 -9.07035065 54.09179306 C-9.04489346 50.43902221 -9.05667168 46.78815014 -9.07751465 43.13539124 C-9.06140184 42.08478817 -9.04528903 41.0341851 -9.02868795 39.95174557 C-9.12080074 33.0250549 -10.7809962 28.51954543 -14.47090769 22.65344328 C-16.59857141 18.84176441 -16.45743243 16.54954952 -15.8125 12.25 C-14.16354977 7.04278876 -12.36016546 4.28177697 -7.8125 1.25 C-5.13594199 -0.08827901 -2.98815948 0.04421444 0 0 Z " fill="#6189C5" transform="translate(372.8125,1.75)"/>
<path d="M0 0 C2.69078636 1.38207722 2.69078636 1.38207722 5 4 C5.75797128 7.39102916 5.67414512 10.7367789 5.63491821 14.19926453 C5.64271817 15.24832767 5.65051812 16.29739081 5.65855443 17.37824374 C5.67855238 20.90575506 5.66267782 24.43219682 5.64697266 27.9597168 C5.65374579 30.48442212 5.6626472 33.0091225 5.67352295 35.53381348 C5.69399749 41.68999051 5.69093988 47.84576965 5.67645974 54.00195213 C5.66516437 59.01222478 5.66363792 64.02241214 5.66907883 69.03269386 C5.66984499 69.74606217 5.67061116 70.45943049 5.67140054 71.19441602 C5.67299924 72.64381548 5.67462031 74.09321491 5.6762635 75.54261432 C5.69053208 89.14563154 5.67411793 102.74848053 5.64726166 116.35147015 C5.62498415 127.99457074 5.62875 139.63742165 5.65185547 151.28051758 C5.67870186 164.81493401 5.68909311 178.34920218 5.67379415 191.88364154 C5.67220154 193.3316614 5.67062969 194.77968128 5.66907883 196.22770119 C5.66830745 196.94003369 5.66753607 197.65236619 5.66674132 198.38628453 C5.66244604 203.37726153 5.66966497 208.36814374 5.68147659 213.35910606 C5.69708745 220.10371334 5.68573753 226.8477825 5.65700531 233.59236908 C5.65043841 236.05727428 5.65221598 238.52221929 5.66331863 240.98710823 C5.76486011 265.83839057 0.91832514 285.04520979 -16 304 C-16.73734375 304.83144531 -17.4746875 305.66289062 -18.234375 306.51953125 C-25.15974803 313.88622707 -33.10144713 319.2157109 -41.92797852 324.05761719 C-46.03385254 326.31339482 -47.68608194 327.97579468 -50 332 C-53.68771447 335.41113589 -56.59971232 336.30691801 -61.5 336.5 C-67.31547148 336.25571868 -70.39172963 334.67763926 -74.46875 330.4921875 C-77.72175276 326.60665643 -78.74655166 323.32799418 -78.41015625 318.2734375 C-77.5595516 313.55865742 -76.08489167 309.70538374 -72.3046875 306.61328125 C-67.19574119 303.66581222 -61.79751823 303.11441107 -56 304 C-55.01 304.66 -54.02 305.32 -53 306 C-44.09127951 305.43264246 -36.92687945 298.57434679 -31.0078125 292.34375 C-19.30089572 278.67808839 -13.8357332 264.82416515 -13.86869812 246.73849487 C-13.86658241 245.70713539 -13.86446669 244.67577591 -13.86228687 243.61316311 C-13.85629714 240.15860196 -13.85728627 236.70407744 -13.8581543 233.24951172 C-13.85512224 230.7723891 -13.85160066 228.29526704 -13.84762573 225.81814575 C-13.8397419 220.48493214 -13.83457362 215.15172581 -13.83133507 209.81850815 C-13.82583118 201.3904698 -13.80892774 192.96247174 -13.78999329 184.53445435 C-13.78363727 181.64980132 -13.77732878 178.76514819 -13.77101612 175.88049507 C-13.76943236 175.15968693 -13.7678486 174.4388788 -13.76621684 173.69622799 C-13.74829312 165.49784628 -13.73205882 157.29946175 -13.71704102 149.10107422 C-13.71497721 147.97728521 -13.71497721 147.97728521 -13.71287171 146.8307934 C-13.69091848 134.67680934 -13.68017898 122.5228357 -13.67267027 110.36883532 C-13.66460463 97.88872227 -13.64133577 85.40869866 -13.6047166 72.92863667 C-13.58267637 65.23087112 -13.57303152 57.53328934 -13.57921693 49.83549382 C-13.58276104 43.94219874 -13.56555944 38.04908111 -13.54053879 32.1558342 C-13.53359665 29.73545816 -13.53353264 27.31505148 -13.54073906 24.89467621 C-13.54956414 21.59860401 -13.53403617 18.3035287 -13.51225281 15.00753784 C-13.52491661 13.56037551 -13.52491661 13.56037551 -13.53783625 12.08397758 C-13.45841841 5.61610037 -13.45841841 5.61610037 -11.0929842 2.43702888 C-7.23978606 -0.20855106 -4.70122864 -0.39840921 0 0 Z " fill="#1D2952" transform="translate(344,53)"/>
<path d="M0 0 C2.11178831 3.85931003 2.24689091 6.65770996 2.24050903 11.08673096 C2.24221788 11.80068677 2.24392673 12.51464258 2.24568737 13.25023341 C2.24898156 15.64251032 2.23797985 18.03450674 2.22705078 20.42675781 C2.22648665 22.14161167 2.22680326 23.85646601 2.22793579 25.57131958 C2.22851024 30.22800123 2.21674105 34.8845801 2.20278788 39.54123783 C2.19029584 44.40726769 2.18911122 49.27329984 2.18673706 54.13934326 C2.1805178 63.3544675 2.16410094 72.56954435 2.14403808 81.7846477 C2.12169296 92.2754653 2.11068914 102.76628514 2.10064721 113.25712061 C2.07973512 134.83810687 2.04455046 156.41905045 2 178 C5.63 179.98 9.26 181.96 13 184 C13.06947079 172.33457856 13.12279647 160.66920622 13.15543652 149.00362015 C13.17110107 143.58697459 13.19235391 138.17047043 13.22631836 132.75390625 C13.25888341 127.52788653 13.27684706 122.30200293 13.28463173 117.07588959 C13.29018035 115.08075568 13.3010153 113.08562934 13.31719017 111.09055328 C13.3389264 108.29881108 13.34196851 105.50763334 13.34057617 102.71582031 C13.351362 101.88863495 13.36214783 101.06144958 13.3732605 100.209198 C13.35468949 96.77430893 13.26361769 94.4409678 11.47871399 91.45526123 C10.99073837 90.97502502 10.50276276 90.49478882 10 90 C10.33 89.34 10.66 88.68 11 88 C13.95592851 90.32331724 14.92301133 91.49659191 15.50057125 95.2730999 C15.50078053 96.5829693 15.50098982 97.89283871 15.50120544 99.24240112 C15.50950704 100.33905379 15.50950704 100.33905379 15.51797634 101.45786107 C15.5315966 103.90958974 15.51660583 106.36030268 15.50170898 108.81201172 C15.50549227 110.56999138 15.51099239 112.32796806 15.51808167 114.0859375 C15.53207079 118.86814316 15.52083403 123.64999026 15.50437045 128.43217611 C15.49050586 133.45341356 15.49698313 138.47463044 15.50050354 143.49588013 C15.50320903 151.94799549 15.48971632 160.39996917 15.46655273 168.85205078 C15.44009568 178.57202149 15.43814509 188.29175299 15.4499411 198.01174724 C15.46080265 207.39830524 15.45445675 216.78477817 15.44038582 226.1713295 C15.43468241 230.14442116 15.43466399 234.1174494 15.43945122 238.09054184 C15.48300577 286.85663014 9.57364035 329.44215948 -24.890625 366.69921875 C-26.79035018 368.7713264 -28.58226381 370.89841131 -30.375 373.0625 C-34.70899466 378.02273701 -39.82236469 381.95957141 -45 386 C-46.07047771 386.84875 -47.14078682 387.69771269 -48.2109375 388.546875 C-72.09819675 407.37297219 -98.95845223 418.25841938 -128.87792969 423.2277832 C-130.38081543 423.4920813 -130.38081543 423.4920813 -131.9140625 423.76171875 C-133.2436499 423.977677 -133.2436499 423.977677 -134.60009766 424.19799805 C-137.62317982 425.2082549 -139.02233108 426.52268864 -141 429 C-141.45539477 432.64315815 -141.58580315 434.96529586 -139.75683594 438.19580078 C-138.15813998 440.17060786 -138.15813998 440.17060786 -135.87988281 440.45654297 C-129.68280922 440.22836098 -123.81003065 439.43152037 -117.75 438.125 C-116.46222656 437.86396484 -116.46222656 437.86396484 -115.1484375 437.59765625 C-111.53298585 436.84675475 -108.12584373 436.04477696 -104.640625 434.8046875 C-101.88553584 433.96511891 -100.65000601 433.98076692 -98 435 C-126.32029058 444.30980694 -126.32029058 444.30980694 -139 442 C-141.41015625 439.59765625 -141.41015625 439.59765625 -143 437 C-143 436.34 -143 435.68 -143 435 C-143.9075 434.9175 -144.815 434.835 -145.75 434.75 C-149.54517398 433.87419062 -150.38104623 432.77767824 -153 430 C-154.794375 429.2575 -154.794375 429.2575 -156.625 428.5 C-159.40345826 427.02729788 -159.92253426 426.23467562 -160.9296875 423.18359375 C-162.35569346 415.06708038 -162.35569346 415.06708038 -161 411 C-160.34 411 -159.68 411 -159 411 C-159.32742187 410.47921875 -159.65484375 409.9584375 -159.9921875 409.421875 C-161.31089836 406.25287991 -161.19340276 403.6701381 -161.125 400.25 C-161.09792969 398.49429688 -161.09792969 398.49429688 -161.0703125 396.703125 C-161.04710937 395.81109375 -161.02390625 394.9190625 -161 394 C-160.67 394 -160.34 394 -160 394 C-159.90203125 394.88042969 -159.8040625 395.76085937 -159.703125 396.66796875 C-159.47882813 398.41013672 -159.47882813 398.41013672 -159.25 400.1875 C-159.11078125 401.33605469 -158.9715625 402.48460937 -158.828125 403.66796875 C-157.58100487 408.68586249 -155.2430183 411.17132114 -151 414 C-145.70019589 414.65769575 -139.9403284 415.15001954 -135.3125 412.125 C-132.9596724 410.21600758 -132.9596724 410.21600758 -132 408 C-129.14350311 407.3077907 -126.32390103 406.72299749 -123.4375 406.1875 C-103.07143414 402.10475215 -84.1379138 394.9789236 -67 383 C-65.90558594 382.26265625 -64.81117188 381.5253125 -63.68359375 380.765625 C-36.56176775 362.23131334 -17.43540434 337.21547437 -7.1875 306.0625 C-6.90938477 305.23024902 -6.63126953 304.39799805 -6.34472656 303.54052734 C-0.78667298 285.7391852 -0.55518879 268.01658964 -0.56762695 249.52880859 C-0.56023814 246.79711134 -0.54839254 244.06543746 -0.53674316 241.33375549 C-0.51411303 235.48836047 -0.50209928 229.64302441 -0.49761391 223.79758835 C-0.49111324 215.34642877 -0.46810791 206.89537509 -0.44127061 198.44425853 C-0.39815222 184.72782796 -0.3681005 171.01140189 -0.34643555 157.29492188 C-0.32538079 143.98272494 -0.29806676 130.67056472 -0.26245117 117.35839844 C-0.26025235 116.53572969 -0.25805352 115.71306093 -0.25578807 114.86546282 C-0.24471729 110.73774623 -0.2335247 106.61002997 -0.22227156 102.48231387 C-0.12929846 68.32157359 -0.05760269 34.16081784 0 0 Z " fill="#F1F5F8" transform="translate(413,42)"/>
<path d="M0 0 C8.91 0 17.82 0 27 0 C28.12499348 7.87495437 28.12499348 7.87495437 28.12025452 11.4198103 C28.12231604 12.6313872 28.12231604 12.6313872 28.12441921 13.8674404 C28.12082425 14.73378318 28.11722929 15.60012596 28.11352539 16.49272156 C28.11367425 17.42945278 28.11382311 18.36618401 28.11397648 19.33130103 C28.1132838 22.46006694 28.10544959 25.58877363 28.09765625 28.7175293 C28.0957364 30.9650723 28.09427292 33.21261572 28.0932312 35.4601593 C28.0900723 40.29624411 28.08380663 45.13231142 28.07516479 49.96838951 C28.06163011 57.62156925 28.05574533 65.27474319 28.05102539 72.92793274 C28.04369406 83.66379242 28.03358425 94.39964407 28.02050781 105.13549805 C28.01968 105.81623321 28.01885219 106.49696837 28.01799929 107.19833187 C28.01125825 112.71840527 28.00433578 118.23847844 27.99739647 123.7585516 C27.99134561 128.57658313 27.98536426 133.39461473 27.97949219 138.21264648 C27.97866406 138.89103156 27.97783593 139.56941665 27.97698271 140.26835885 C27.96326686 151.60492091 27.95356485 162.94148224 27.94658184 174.27805072 C27.94161083 181.87910572 27.93176746 189.48013386 27.91815186 197.08117807 C27.91066786 201.82026138 27.90737166 206.55934106 27.9051857 211.29842949 C27.90332092 213.48808767 27.89973451 215.6777452 27.89425278 217.86739731 C27.827577 233.46111369 27.827577 233.46111369 29 249 C28.01 248.67 27.02 248.34 26 248 C26 166.49 26 84.98 26 1 C17.42 1 8.84 1 0 1 C0 0.67 0 0.34 0 0 Z " fill="#D4D7E1" transform="translate(138,57)"/>
<path d="M0 0 C2.68507671 1.55204391 2.68507671 1.55204391 5 4 C5.49310901 6.72268483 5.65689526 8.82282461 5.60127258 11.54229736 C5.60554471 12.3052558 5.60981683 13.06821424 5.61421841 13.85429263 C5.6224597 16.41289763 5.59494656 18.96986618 5.56762695 21.52832031 C5.56621672 23.36139894 5.56700798 25.19448039 5.56983948 27.02755737 C5.571276 32.00674726 5.54184784 36.98533677 5.50696969 41.96438694 C5.47574566 47.16671785 5.47277857 52.36906202 5.46684265 57.57147217 C5.45129259 67.42419403 5.41024831 77.276639 5.3600952 87.12923884 C5.30423797 98.34552407 5.27672433 109.56182242 5.25161803 120.77821207 C5.19933355 143.85229498 5.11136859 166.92613199 5 190 C4.67 190 4.34 190 4 190 C3.99853344 189.0493249 3.99706688 188.09864981 3.99555588 187.11916637 C3.95899594 164.01016304 3.89959259 140.90130503 3.81609726 117.79242229 C3.77625128 106.61722758 3.74388709 95.44210384 3.72900391 84.2668457 C3.71601615 74.52893667 3.68912535 64.79118347 3.64538693 55.05336219 C3.62270724 49.8950073 3.6070932 44.73684507 3.60811615 39.5784359 C3.60885893 34.72664151 3.59106269 29.87527407 3.55883217 25.02359009 C3.55028906 23.23976906 3.54861293 21.45590039 3.55419731 19.67206764 C3.56079281 17.2422331 3.54302582 14.81377481 3.51898193 12.38407898 C3.52674235 11.67299207 3.53450277 10.96190516 3.54249835 10.22927016 C3.48636956 7.04028103 3.377499 5.40546529 1.16287613 3.02677631 C-1.89217634 1.57645955 -3.80154802 2.09608966 -7 3 C-7.66 3.66 -8.32 4.32 -9 5 C-9.99 5 -10.98 5 -12 5 C-11 2 -11 2 -9.375 0.8125 C-6.04576496 -0.32644883 -3.49841727 -0.36825445 0 0 Z " fill="#4A5376" transform="translate(344,53)"/>
<path d="M0 0 C0.33 0 0.66 0 1 0 C1.00423194 0.57131023 1.00846388 1.14262047 1.01282406 1.73124313 C1.11646409 15.680327 1.22520634 29.62936323 1.33933926 43.57836533 C1.39444275 50.32419973 1.44788508 57.07003941 1.49731445 63.81591797 C1.54523343 70.33228344 1.59758398 76.84859993 1.65294075 83.36490631 C1.67324024 85.84462506 1.69197274 88.32435717 1.70907402 90.80410004 C1.73339505 94.29099833 1.76340846 97.77780645 1.79467773 101.26464844 C1.8004332 102.27813858 1.80618866 103.29162872 1.81211853 104.33583069 C1.88220272 111.26129526 2.34088749 118.10628112 3 125 C2.01 124.67 1.02 124.34 0 124 C0 83.08 0 42.16 0 0 Z " fill="#CDD0DA" transform="translate(164,181)"/>
<path d="M0 0 C2.68717957 1.66229248 2.68717957 1.66229248 5 4 C5.60127258 6.68292236 5.60127258 6.68292236 5.56762695 9.77832031 C5.5672493 10.9392218 5.56687164 12.10012329 5.56648254 13.29620361 C5.54067612 14.54423767 5.51486969 15.79227173 5.48828125 17.078125 C5.48120651 18.35983582 5.47413177 19.64154663 5.46684265 20.96209717 C5.44779234 24.36231616 5.39871189 27.76145958 5.34332275 31.16125488 C5.29208578 34.63339691 5.26931933 38.10571353 5.24414062 41.578125 C5.19058875 48.38585726 5.10530171 55.19287693 5 62 C4.67 62 4.34 62 4 62 C3.99635437 61.29256149 3.99270874 60.58512299 3.98895264 59.85624695 C3.95109179 53.19049711 3.89426174 46.52521089 3.81609726 39.85980511 C3.77658092 36.43296577 3.74441344 33.00638496 3.72900391 29.5793457 C3.71096851 25.63980067 3.66103569 21.70097231 3.609375 17.76171875 C3.60814636 16.53039719 3.60691772 15.29907562 3.60565186 14.03044128 C3.58593323 12.88948502 3.5662146 11.74852875 3.54589844 10.57299805 C3.53701599 9.567061 3.52813354 8.56112396 3.51898193 7.52470398 C3.21423951 4.87850725 3.21423951 4.87850725 1.16119385 3.13996887 C-1.89052038 1.53027559 -3.74536824 2.08021276 -7 3 C-7.66 3.66 -8.32 4.32 -9 5 C-9.99 5 -10.98 5 -12 5 C-11 2 -11 2 -9.375 0.8125 C-6.04576496 -0.32644883 -3.49841727 -0.36825445 0 0 Z " fill="#253057" transform="translate(344,53)"/>
<path d="M0 0 C0.33 0 0.66 0 1 0 C1.02505615 1.3003418 1.0501123 2.60068359 1.07592773 3.94042969 C1.17088898 8.81599934 1.27088421 13.69145553 1.37231445 18.56689453 C1.41533096 20.66745326 1.45702557 22.76803953 1.49731445 24.86865234 C1.76403697 40.96067805 1.76403697 40.96067805 3 57 C2.01 56.67 1.02 56.34 0 56 C0 37.52 0 19.04 0 0 Z " fill="#CED0DA" transform="translate(164,249)"/>
<path d="M0 0 C2.9375 2 2.9375 2 5 4 C4.67 4.66 4.34 5.32 4 6 C3.29875 5.319375 2.5975 4.63875 1.875 3.9375 C-0.86351028 1.68023869 -0.86351028 1.68023869 -4.1875 2.125 C-7.10299708 2.79291179 -7.10299708 2.79291179 -9 5 C-9.99 5 -10.98 5 -12 5 C-11 2 -11 2 -9.375 0.8125 C-6.04576496 -0.32644883 -3.49841727 -0.36825445 0 0 Z " fill="#A9AEBD" transform="translate(344,53)"/>
<path d="M0 0 C0.66 0.33 1.32 0.66 2 1 C1.01 1.66 0.02 2.32 -1 3 C-2.20450304 5.55183404 -2.20450304 5.55183404 -3 8 C-3.66 8 -4.32 8 -5 8 C-5.33 11.63 -5.66 15.26 -6 19 C-6.33 19 -6.66 19 -7 19 C-7.54298306 12.4842033 -6.88377017 7.41649552 -3 2 C-2.01 1.34 -1.02 0.68 0 0 Z " fill="#AFB1BF" transform="translate(273,359)"/>
<path d="M0 0 C0 3.87174879 -1.16354335 4.76047249 -3.6875 7.625 C-4.37199219 8.42164063 -5.05648438 9.21828125 -5.76171875 10.0390625 C-8.23852349 12.20896822 -9.7672277 12.67162733 -13 13 C-8.66666667 8.66666667 -4.33333333 4.33333333 0 0 Z " fill="#A6AABA" transform="translate(315,343)"/>
<path d="M0 0 C0.33 0 0.66 0 1 0 C1.66 6.93 2.32 13.86 3 21 C2.01 20.67 1.02 20.34 0 20 C0 13.4 0 6.8 0 0 Z " fill="#A2A7B7" transform="translate(164,285)"/>
<path d="M0 0 C1.60226148 4.00565371 0.47694566 7.08609399 -1 11 C-1.99 11.33 -2.98 11.66 -4 12 C-2.66666667 8 -1.33333333 4 0 0 Z " fill="#6E758F" transform="translate(328,320)"/>
<path d="M0 0 C0.350625 0.515625 0.70125 1.03125 1.0625 1.5625 C-2.87420488 2.87473496 -5.06238144 1.80546256 -8.9375 0.5625 C-8.9375 0.2325 -8.9375 -0.0975 -8.9375 -0.4375 C-2.41442308 -1.79134615 -2.41442308 -1.79134615 0 0 Z " fill="#9398AC" transform="translate(209.9375,466.4375)"/>
<path d="M0 0 C-1.33332095 3.99996286 -3.4957827 4.83782337 -7 7 C-6.22006468 2.47637516 -4.81844319 0 0 0 Z " fill="#4B5474" transform="translate(278,358)"/>
<path d="M0 0 C0.66 0.33 1.32 0.66 2 1 C0.375 7.75 0.375 7.75 -3 10 C-2.01 6.7 -1.02 3.4 0 0 Z " fill="#7497CC" transform="translate(358,332)"/>
</svg>
